#format: frame checksums
#version: 2
#hash: MD5
#extradata 0,                              16, 9881f4423f0a3b5da25a0574d3451eef
#tb 0: 1/25
#media_type 0: video
#codec_id 0: utvideo
#dimensions 0: 352x288
#sar 0: 0/1
#stream#, dts,        pts, duration,     size, hash
0,          0,          0,        1,   301284, 55e84c6e1f41e48f47dcefb63e3c1efd
0,          1,          1,        1,   301296, 12dab23dfd2c2d5b48bed2292b876688
0,          2,          2,        1,   301072, cc2e2889403dcc5d8e36868f07918b9d
0,          3,          3,        1,   301136, 9813d60e613a3a14e639f9af0a5b1fe7
0,          4,          4,        1,   301140, 58554bb6749e8bbd9476335ac1cb0076
0,          5,          5,        1,   301164, 37a249286019761a4a3e498e977f9da1
0,          6,          6,        1,   301168, f3aa11b419ec6f683ad906e7f7a36342
0,          7,          7,        1,   301272, f489654640f0e42225815ea9c9681201
0,          8,          8,        1,   301308, f10eb3c1d0324b59bd25c8bc6556aca0
0,          9,          9,        1,   301268, 2163aa992afef5210d677953d81adb17
0,         10,         10,        1,   301168, 684d19d14212615ebffa1748a9c552ed
0,         11,         11,        1,   301136, a5c47c30d12dbc679ce932a5988b32e5
0,         12,         12,        1,   301272, 3a51dc37d7e5ecb4a8db948eade2e0fa
0,         13,         13,        1,   301188, f9f9ed41c233e791e6cd75a34e52edf8
0,         14,         14,        1,   301096, 63bbfbee6f0fa6745e143dfae40ce7ff
0,         15,         15,        1,   301108, 1fb3340dd1804d27fb40aea6b073e9ce
0,         16,         16,        1,   301248, 476d27f29da8e74db696ff38e81743fc
0,         17,         17,        1,   301300, 84a7f5804a856b7ef640838320634568
0,         18,         18,        1,   301424, f34006fb55745aac29e265e0362434bf
0,         19,         19,        1,   301456, d9207e54e261d184ddd02f3706e63103
0,         20,         20,        1,   301408, 89b5a6804bad85025a6a3d23dc539426
0,         21,         21,        1,   301404, 5987d22d6e3bf18cd2ebea98a1915f57
0,         22,         22,        1,   301340, 43ff13bb237a7899ecb04fa7d27e94ab
0,         23,         23,        1,   301288, 01b3e148ed6b8a0d05ee628fb21fa4a5
0,         24,         24,        1,   301360, aa7704007e3c437cfcad4fb83a69594a
0,         25,         25,        1,   301376, 4dea983f0b4a012ba6875aa857d02e91
0,         26,         26,        1,   301312, e263f1cb0fb19b50751e9a214a4c9d81
0,         27,         27,        1,   301460, 85ad441664c99c591d6dc427910faa19
0,         28,         28,        1,   301380, 86ffe8273011763d800dbf6c89942a70
0,         29,         29,        1,   301448, 500862ea62e1982325d653d4853dcbcd
0,         30,         30,        1,   301452, 91c4390a805e02d1924bd75946bc0b63
0,         31,         31,        1,   301388, 4eb3040d65948355c4506ee8e8e041ca
0,         32,         32,        1,   301348, ece814a764470f1d80973743a7adaa4b
0,         33,         33,        1,   301324, 2ae0b9af5380c8f98087b90c646af813
0,         34,         34,        1,   301224, d6a3ba0b543534bd7de9dd82107c468c
0,         35,         35,        1,   301384, 4f4919c1b2502c6e03ddaa83f4c03f15
0,         36,         36,        1,   301460, b45189bc89e6583f4426c390622fa1fc
0,         37,         37,        1,   301456, db0c5e2bc705c825e554c2da54314746
0,         38,         38,        1,   301520, 8d01037b2dcbba39d4746758fd53323c
0,         39,         39,        1,   301524, 0a78af44bf49520ae8830060e6011898
0,         40,         40,        1,   301532, da9032ac97b76ec10f94d74ee878cf41
0,         41,         41,        1,   301496, 9a22b2a9a3ad897406fc7c3137d41a3b
0,         42,         42,        1,   301572, a14a80ab416cf4a9a1ec24bfc72602a1
0,         43,         43,        1,   301532, 71ea5a240540a2e08ced8ad78c1a0676
0,         44,         44,        1,   301516, fffe101d036ed5afee9b6f86267c2a0c
0,         45,         45,        1,   301568, 58ea3a6edaee760d98eadb072fb30796
0,         46,         46,        1,   301660, 9886e77f5df35d8bd164d598d0f87514
0,         47,         47,        1,   301668, 1f326eb789974fc853e1db57115ef58b
0,         48,         48,        1,   301684, 08b2eb620b9a7be1bded4744cd4c88db
0,         49,         49,        1,   301668, bfcce1ce5f7c30230aae9a2d67fc8a70
